<svg id="Layer_1"
     xmlns="http://www.w3.org/2000/svg"
     xmlns:xlink="http://www.w3.org/1999/xlink"
     viewBox="0 0 280 280">
    <path stroke="none"
          d="
        M159.775406,205.185913
            C144.338684,205.130722 128.901947,205.075516 112.529175,205.018051
            C97.146400,205.002975 82.699677,204.990173 68.252953,204.977371
            C56.497288,201.768951 45.313427,197.515213 35.881351,189.345291
            C24.985924,179.907806 18.631874,168.089722 16.413673,154.004288
            C12.406255,128.557388 19.286715,106.917480 39.764614,90.580643
            C50.254219,82.212265 62.507824,77.738365 76.492447,77.302826
            C76.258789,88.591454 75.504875,99.400024 74.398453,110.298508
            C67.702515,111.121529 62.305470,113.847992 57.699001,118.201828
            C48.686176,126.720345 45.549007,137.231308 48.743141,149.024261
            C51.797546,160.301300 59.000481,168.148605 71.329590,170.980682
            C86.248550,171.047058 100.693993,171.045105 115.597702,171.075867
            C131.372849,171.311310 146.689713,171.514053 162.473450,171.666351
            C177.373566,171.668045 191.806824,171.720154 206.598572,171.710922
            C225.136368,167.850998 235.673645,147.407806 228.488953,129.265533
            C225.159729,120.858780 219.628433,114.259018 210.368820,111.336502
            C210.536835,108.962090 210.761795,106.981171 210.900711,104.994240
            C211.525070,96.064865 212.125015,87.133766 212.733734,78.203293
            C227.058090,81.908936 239.763458,88.449104 249.352722,99.992485
            C256.390076,108.463913 260.870117,118.370361 262.460480,129.206329
            C265.522675,150.070663 261.984650,169.491699 246.948273,185.304733
            C235.643265,197.193649 221.143921,203.078308 204.157181,205.260071
            C188.761063,205.201279 174.268234,205.193604 159.775406,205.185913
        z"/>
    <path stroke="none"
          d="
        M206.240082,171.772278
            C191.806824,171.720154 177.373566,171.668045 162.574463,171.287750
            C162.655228,164.820663 163.183960,158.686401 163.531815,152.541870
            C164.330627,138.431915 165.041290,124.316956 165.926544,109.779984
            C166.922287,98.889847 167.779175,88.423752 168.636078,77.957649
            C169.059799,71.815865 169.853455,65.673584 169.845200,59.532383
            C169.802216,27.604467 190.617416,6.470560 222.618790,5.435158
            C230.725891,5.172853 238.940521,5.751393 246.989090,6.821270
            C256.065613,8.027794 260.839630,15.676120 259.986145,26.082462
            C259.173309,35.993122 253.576950,41.763321 244.268616,41.985714
            C239.947403,42.088955 235.615128,41.629482 231.289200,41.654636
            C221.480759,41.711670 216.490280,45.660690 214.864471,55.427765
            C213.665634,62.629768 213.301193,69.970665 212.649353,77.726486
            C212.125015,87.133766 211.525070,96.064865 210.900711,104.994240
            C210.761795,106.981171 210.536835,108.962090 210.303070,111.834564
            C208.916473,132.406326 207.578278,152.089294 206.240082,171.772278
        z"/>
    <path stroke="none"
          d="
        M74.750961,110.208588
            C75.504875,99.400024 76.258789,88.591454 76.921494,77.326530
            C77.278938,71.066597 77.739182,65.263893 78.173698,59.459263
            C78.959709,48.959133 80.647873,38.765316 86.249527,29.499783
            C94.507141,15.841088 106.973396,8.268595 122.262390,6.506606
            C133.219208,5.243882 144.519409,5.944035 155.573944,6.871106
            C164.250977,7.598792 169.689819,16.339396 168.909668,26.029091
            C168.158203,35.362377 161.885834,41.759590 152.988235,41.971161
            C148.497879,42.077938 143.995956,41.613819 139.501678,41.657341
            C129.979141,41.749554 124.203659,46.719162 123.051125,56.171673
            C122.245888,62.775852 122.023590,69.451103 121.437958,76.900040
            C120.638542,88.534698 119.942085,99.363930 119.129852,110.604431
            C117.722527,131.024841 116.430977,151.033997 115.139435,171.043152
            C100.693993,171.045105 86.248550,171.047058 71.354340,170.530075
            C71.494034,160.611481 72.069412,151.210968 72.674423,141.812378
            C73.352623,131.276886 74.057625,120.743111 74.750961,110.208588
        z"/>
    <path stroke="none"
          d="
        M68.227951,205.438263
            C82.699677,204.990173 97.146400,205.002975 112.101685,205.071915
            C111.842453,214.906204 111.732292,224.790451 110.175156,234.441238
            C106.503716,257.196075 89.568703,273.448181 66.651077,275.707245
            C56.492214,276.708618 46.119850,275.514282 35.843708,275.363861
            C25.326412,275.209930 18.493156,263.374756 21.546988,252.612305
            C24.121370,243.539551 29.002228,239.789658 38.573635,239.829605
            C42.067173,239.844177 45.559513,240.098633 49.053238,240.122803
            C60.155197,240.199585 65.882759,235.025238 66.934631,223.823608
            C67.494484,217.861679 67.788795,211.874786 68.227951,205.438263
        z"/>
    <path stroke="none"
          d="
        M159.771698,205.593491
            C174.268234,205.193604 188.761063,205.201279 203.734070,205.237946
            C203.077393,216.339127 202.695847,227.553818 200.640060,238.452698
            C196.838638,258.606110 179.216125,273.953400 157.544083,275.774353
            C147.041168,276.656860 136.339539,275.724518 125.766541,275.027313
            C118.836601,274.570312 114.550217,269.768524 113.050705,263.400391
            C110.145203,251.061264 116.130646,238.550064 131.488266,239.818436
            C134.799332,240.091904 138.137909,240.127823 141.463211,240.115219
            C151.196320,240.078339 156.664398,235.618103 158.094986,225.863785
            C159.057327,219.302231 159.237762,212.625992 159.771698,205.593491
        z"/>
    <path stroke="none"
          d="
        M119.245636,110.193169
            C119.942085,99.363930 120.638542,88.534698 121.538513,77.360596
            C137.079590,77.315140 152.417160,77.614548 168.195404,77.935806
            C167.779175,88.423752 166.922287,98.889847 165.476974,109.856239
            C149.674255,110.302078 134.459946,110.247620 119.245636,110.193169
        z"/>
</svg>