<?xml version="1.0" standalone="no"?>
<!DOCTYPE svg PUBLIC "-//W3C//DTD SVG 20010904//EN" "http://www.w3.org/TR/2001/REC-SVG-20010904/DTD/svg10.dtd">
<!-- Created using Krita: https://krita.org -->
<svg xmlns="http://www.w3.org/2000/svg" 
    xmlns:xlink="http://www.w3.org/1999/xlink"
    xmlns:krita="http://krita.org/namespaces/svg/krita"
    xmlns:sodipodi="http://sodipodi.sourceforge.net/DTD/sodipodi-0.dtd"
    viewBox="0 0 374.4 374.4">
<defs/>
<g id="group0" transform="matrix(0.1 0 0 -0.1 -137.808 451.592)" stroke="none">
  <path id="shape0" transform="translate(1710.64386329591, 911.76853748283)" d="M1442.36 3388.23C1267.36 3356.23 1100.36 3228.23 1020.36 3066.23C962.356 2949.23 949.356 2830.23 970.356 2627.23C988.356 2448.23 1018.36 2320.23 1095.36 2093.23C1136.36 1973.23 1169.36 1859.23 1169.36 1840.23C1169.36 1711.23 1063.36 1607.23 931.356 1605.23C859.356 1605.23 794.356 1632.23 741.356 1687.23C676.356 1754.23 671.356 1784.23 654.356 2138.23C632.356 2583.23 625.356 2667.23 601.356 2721.23C573.356 2785.23 506.356 2853.23 441.356 2885.23C326.356 2941.23 175.356 2915.23 86.3561 2823.23C25.3561 2761.23 5.35614 2707.23 1.35614 2596.23C-2.64386 2506.23 2.35614 2458.23 14.3561 2470.23C17.3561 2473.23 23.3561 2518.23 28.3561 2570.23C34.3561 2631.23 45.3561 2680.23 57.3561 2704.23C153.356 2889.23 418.356 2886.23 497.356 2698.23C509.356 2669.23 517.356 2520.23 507.356 2514.23C474.356 2492.23 258.356 2292.23 229.356 2255.23C142.356 2147.23 79.3561 1970.23 79.3561 1836.23C79.3561 1780.23 76.3561 1768.23 63.3561 1768.23C49.3561 1768.23 48.3561 1761.23 53.3561 1731.23C56.3561 1710.23 59.3561 1685.23 59.3561 1675.23C59.3561 1662.23 64.3561 1658.23 77.3561 1662.23C92.3561 1667.23 98.3561 1660.23 108.356 1626.23C119.356 1589.23 119.356 1583.23 105.356 1572.23C90.3561 1561.23 90.3561 1556.23 111.356 1514.23C128.356 1478.23 138.356 1468.23 152.356 1472.23C164.356 1475.23 177.356 1465.23 193.356 1440.23C214.356 1407.23 214.356 1402.23 201.356 1392.23C187.356 1382.23 188.356 1376.23 212.356 1344.23C242.356 1305.23 249.356 1302.23 266.356 1319.23C275.356 1328.23 290.356 1320.23 327.356 1287.23C395.356 1226.23 491.356 1171.23 576.356 1145.23C616.356 1133.23 649.356 1117.23 649.356 1111.23C649.356 1104.23 666.356 1082.23 687.356 1063.23C789.356 966.231 933.356 940.231 1078.36 992.231C1118.36 1007.23 1124.36 1007.23 1146.36 993.231C1179.36 971.231 1177.36 926.231 1142.36 898.231C1107.36 871.231 1073.36 878.231 1037.36 920.231C1012.36 949.231 1009.36 950.231 1009.36 931.231C1009.36 903.231 1042.36 863.231 1078.36 848.231C1154.36 817.231 1239.36 879.231 1239.36 964.231C1239.36 1024.23 1214.36 1064.23 1161.36 1090.23C1121.36 1109.23 1111.36 1110.23 1051.36 1100.23C1014.36 1094.23 968.356 1092.23 949.356 1097.23C930.356 1101.23 894.356 1100.23 869.356 1095.23C823.356 1087.23 737.356 1092.23 684.356 1107.23C665.356 1112.23 694.356 1113.23 759.356 1110.23C975.356 1100.23 1134.36 1157.23 1329.36 1314.23C1359.36 1338.23 1350.36 1327.23 1305.36 1283.23L1236.36 1216.23L1260.36 1129.23C1292.36 1014.23 1291.36 939.231 1256.36 872.231C1205.36 772.231 1107.36 715.231 985.356 716.231C831.356 717.231 713.356 809.231 650.356 978.231C607.356 1093.23 517.356 1159.23 405.356 1157.23C290.356 1155.23 258.356 1128.23 365.356 1124.23C472.356 1120.23 538.356 1057.23 554.356 943.231C558.356 915.231 572.356 856.231 586.356 810.231C606.356 745.231 621.356 718.231 655.356 680.231C680.356 654.231 714.356 617.231 733.356 597.231C751.356 577.231 780.356 558.231 797.356 555.231C814.356 551.231 838.356 539.231 849.356 528.231C869.356 508.231 900.356 499.231 1015.36 479.231C1090.36 465.231 1125.36 465.231 1149.36 478.231C1159.36 483.231 1197.36 489.231 1234.36 491.231C1286.36 493.231 1305.36 499.231 1318.36 514.231C1344.36 546.231 1385.36 568.231 1397.36 556.231C1408.36 545.231 1457.36 567.231 1480.36 594.231C1491.36 607.231 1491.36 612.231 1481.36 615.231C1474.36 618.231 1488.36 641.231 1520.36 676.231C1578.36 742.231 1632.36 845.231 1655.36 938.231C1669.36 991.231 1671.36 1036.23 1667.36 1178.23C1664.36 1274.23 1665.36 1328.23 1669.36 1298.23C1673.36 1268.23 1686.36 1206.23 1698.36 1161.23C1723.36 1063.23 1725.36 943.231 1703.36 854.231C1685.36 784.231 1597.36 612.231 1580.36 615.231C1568.36 618.231 1537.36 564.231 1541.36 545.231C1545.36 524.231 1528.36 484.231 1509.36 468.231C1498.36 460.231 1487.36 432.231 1484.36 406.231C1478.36 366.231 1479.36 358.231 1493.36 358.231C1502.36 358.231 1511.36 346.231 1515.36 331.231C1518.36 315.231 1522.36 297.231 1525.36 291.231C1527.36 284.231 1522.36 278.231 1514.36 278.231C1494.36 278.231 1495.36 257.231 1516.36 213.231C1528.36 188.231 1538.36 178.231 1550.36 181.231C1568.36 186.231 1616.36 132.231 1611.36 111.231C1608.36 97.2315 1671.36 57.2315 1702.36 54.2315C1738.36 50.2315 1773.36 36.2315 1784.36 22.2315C1789.36 16.2315 1813.36 7.23146 1837.36 3.23146C1872.36 -2.76854 1879.36 -0.768537 1879.36 12.2315C1879.36 22.2315 1888.36 28.2315 1902.36 28.2315C1951.36 28.2315 2021.36 61.2315 2073.36 109.231C2186.36 212.231 2209.36 370.231 2128.36 491.231C2099.36 535.231 1994.36 616.231 1982.36 604.231C1979.36 601.231 1996.36 580.231 2021.36 558.231C2082.36 505.231 2113.36 432.231 2106.36 361.231C2095.36 251.231 2023.36 177.231 1920.36 170.231C1825.36 163.231 1752.36 213.231 1729.36 299.231C1713.36 359.231 1730.36 403.231 1810.36 498.231C1903.36 608.231 1933.36 653.231 1974.36 741.231C2025.36 846.231 2050.36 954.231 2056.36 1093.23L2062.36 1213.23L1988.36 1285.23C1947.36 1324.23 1906.36 1372.23 1895.36 1390.23C1877.36 1421.23 1879.36 1421.23 1925.36 1377.23C2010.36 1297.23 2118.36 1216.23 2190.36 1178.23L2259.36 1142.23L2219.36 1110.23C2198.36 1092.23 2167.36 1056.23 2152.36 1030.23C2129.36 991.231 2124.36 972.231 2124.36 913.231C2124.36 831.231 2144.36 783.231 2202.36 727.231C2257.36 672.231 2312.36 654.231 2403.36 660.231C2514.36 667.231 2585.36 715.231 2642.36 822.231C2673.36 881.231 2673.36 1015.23 2642.36 1074.23C2603.36 1147.23 2571.36 1176.23 2415.36 1272.23C2260.36 1369.23 2194.36 1416.23 2234.36 1403.23C2245.36 1400.23 2275.36 1392.23 2301.36 1386.23C2332.36 1378.23 2346.36 1371.23 2342.36 1362.23C2339.36 1354.23 2347.36 1347.23 2361.36 1344.23C2373.36 1341.23 2396.36 1337.23 2412.36 1333.23C2432.36 1329.23 2439.36 1331.23 2439.36 1343.23C2439.36 1354.23 2450.36 1358.23 2479.36 1358.23C2508.36 1358.23 2519.36 1354.23 2519.36 1343.23C2519.36 1332.23 2531.36 1328.23 2569.36 1328.23C2610.36 1328.23 2619.36 1331.23 2619.36 1346.23C2619.36 1358.23 2631.36 1367.23 2659.36 1375.23C2691.36 1383.23 2699.36 1383.23 2699.36 1372.23C2699.36 1350.23 2716.36 1347.23 2759.36 1364.23C2796.36 1379.23 2799.36 1383.23 2794.36 1407.23C2789.36 1429.23 2794.36 1436.23 2819.36 1452.23C2844.36 1466.23 2853.36 1467.23 2865.36 1457.23C2876.36 1448.23 2883.36 1449.23 2900.36 1464.23C2932.36 1493.23 2942.36 1517.23 2929.36 1533.23C2920.36 1544.23 2923.36 1554.23 2940.36 1578.23C2953.36 1595.23 2969.36 1606.23 2976.36 1604.23C2984.36 1601.23 2992.36 1613.23 2999.36 1636.23C3011.36 1680.23 3012.36 1708.23 3002.36 1708.23C2997.36 1708.23 2994.36 1747.23 2994.36 1796.23C2994.36 1919.23 2967.36 1974.23 2850.36 2088.23C2774.36 2161.23 2760.36 2180.23 2752.36 2220.23C2728.36 2331.23 2770.36 2416.23 2875.36 2470.23C2945.36 2505.23 2974.36 2534.23 2985.36 2581.23C2994.36 2618.23 2977.36 2615.23 2955.36 2574.23C2936.36 2539.23 2919.36 2527.23 2855.36 2507.23C2778.36 2484.23 2702.36 2389.23 2698.36 2313.23C2697.36 2294.23 2695.36 2290.23 2693.36 2303.23C2662.36 2452.23 2611.36 2563.23 2522.36 2673.23C2454.36 2758.23 2423.36 2821.23 2409.36 2911.23C2396.36 2994.23 2409.36 3091.23 2444.36 3163.23C2487.36 3253.23 2520.36 3278.23 2599.36 3278.23C2693.36 3278.23 2752.36 3223.23 2765.36 3123.23C2773.36 3070.23 2789.36 3073.23 2789.36 3127.23C2789.36 3182.23 2744.36 3264.23 2696.36 3296.23C2638.36 3334.23 2542.36 3339.23 2479.36 3306.23C2381.36 3254.23 2305.36 3087.23 2305.36 2923.23C2305.36 2789.23 2328.36 2723.23 2433.36 2553.23C2533.36 2391.23 2538.36 2168.23 2446.36 2019.23C2383.36 1916.23 2318.36 1874.23 2219.36 1873.23C2163.36 1873.23 2141.36 1879.23 2057.36 1917.23C2003.36 1942.23 1957.36 1959.23 1954.36 1957.23C1952.36 1954.23 1945.36 1927.23 1940.36 1897.23L1931.36 1843.23L1930.36 1891.23C1929.36 1927.23 1937.36 1955.23 1963.36 2006.23C2001.36 2081.23 2050.36 2215.23 2075.36 2311.23C2130.36 2525.23 2154.36 2822.23 2125.36 2938.23C2059.36 3200.23 1845.36 3379.23 1582.36 3393.23C1534.36 3395.23 1471.36 3393.23 1442.36 3388.23ZM1664.36 3353.23C1927.36 3298.23 2108.36 3071.23 2109.36 2795.23C2109.36 2551.23 2041.36 2238.23 1944.36 2040.23C1911.36 1972.23 1899.36 1935.23 1899.36 1902.23C1899.36 1842.23 1923.36 1785.23 1946.36 1790.23C1960.36 1792.23 1965.36 1805.23 1967.36 1848.23C1969.36 1878.23 1974.36 1906.23 1978.36 1911.23C1982.36 1915.23 2023.36 1901.23 2069.36 1879.23C2135.36 1848.23 2147.36 1839.23 2128.36 1836.23C2090.36 1831.23 2093.36 1803.23 2136.36 1778.23C2166.36 1760.23 2183.36 1757.23 2219.36 1762.23C2321.36 1776.23 2449.36 1865.23 2514.36 1968.23C2549.36 2023.23 2589.36 2132.23 2589.36 2174.23C2589.36 2191.23 2598.36 2217.23 2609.36 2231.23C2620.36 2245.23 2629.36 2267.23 2629.36 2280.23C2629.36 2312.23 2594.36 2348.23 2565.36 2348.23C2546.36 2348.23 2540.36 2355.23 2534.36 2385.23C2522.36 2449.23 2491.36 2521.23 2439.36 2603.23C2351.36 2742.23 2320.36 2863.23 2338.36 2990.23C2348.36 3062.23 2384.36 3160.23 2420.36 3213.23C2446.36 3251.23 2460.36 3253.23 2435.36 3216.23C2411.36 3179.23 2381.36 3083.23 2373.36 3020.23C2361.36 2914.23 2401.36 2778.23 2469.36 2693.23C2549.36 2593.23 2604.36 2501.23 2633.36 2418.23C2659.36 2343.23 2663.36 2320.23 2663.36 2218.23C2663.36 2089.23 2647.36 2014.23 2598.36 1912.23C2559.36 1830.23 2475.36 1739.23 2402.36 1700.23C2344.36 1670.23 2344.36 1670.23 2309.36 1688.23C2253.36 1716.23 2210.36 1723.23 2203.36 1703.23C2193.36 1678.23 2223.36 1653.23 2322.36 1604.23C2530.36 1500.23 2696.36 1503.23 2819.36 1614.23C2883.36 1672.23 2913.36 1738.23 2914.36 1823.23C2914.36 1914.23 2890.36 1975.23 2828.36 2045.23C2801.36 2074.23 2779.36 2101.23 2779.36 2104.23C2779.36 2107.23 2802.36 2090.23 2830.36 2066.23C2931.36 1981.23 2972.36 1892.23 2968.36 1768.23C2966.36 1726.23 2968.36 1687.23 2972.36 1681.23C2981.36 1666.23 2970.36 1638.23 2955.36 1638.23C2933.36 1638.23 2888.36 1557.23 2891.36 1524.23C2894.36 1495.23 2892.36 1494.23 2859.36 1493.23C2814.36 1493.23 2746.36 1444.23 2754.36 1417.23C2762.36 1392.23 2741.36 1383.23 2719.36 1403.23C2703.36 1417.23 2695.36 1418.23 2657.36 1407.23C2634.36 1401.23 2607.36 1387.23 2597.36 1377.23C2578.36 1355.23 2553.36 1352.23 2546.36 1372.23C2542.36 1381.23 2549.36 1388.23 2562.36 1392.23C2596.36 1400.23 2653.36 1463.23 2645.36 1483.23C2640.36 1497.23 2630.36 1499.23 2596.36 1494.23C2535.36 1486.23 2424.36 1483.23 2413.36 1490.23C2408.36 1493.23 2388.36 1499.23 2369.36 1503.23C2350.36 1506.23 2315.36 1518.23 2293.36 1528.23C2254.36 1546.23 2249.36 1546.23 2200.36 1531.23C2164.36 1519.23 2149.36 1509.23 2149.36 1497.23C2149.36 1487.23 2153.36 1476.23 2159.36 1473.23C2165.36 1469.23 2164.36 1460.23 2156.36 1447.23C2145.36 1429.23 2148.36 1422.23 2184.36 1391.23C2206.36 1372.23 2299.36 1309.23 2392.36 1251.23C2565.36 1143.23 2600.36 1110.23 2627.36 1029.23C2668.36 910.231 2601.36 760.231 2484.36 707.231C2431.36 682.231 2337.36 683.231 2284.36 707.231C2262.36 717.231 2228.36 743.231 2209.36 764.231L2174.36 802.231L2209.36 773.231C2258.36 734.231 2300.36 718.231 2357.36 718.231C2526.36 718.231 2627.36 925.231 2515.36 1042.23C2495.36 1063.23 2431.36 1098.23 2334.36 1142.23C2252.36 1180.23 2162.36 1226.23 2134.36 1246.23C2031.36 1318.23 1932.36 1408.23 1889.36 1467.23C1844.36 1528.23 1823.36 1541.23 1813.36 1513.23C1805.36 1494.23 1821.36 1455.23 1865.36 1383.23C1883.36 1353.23 1893.36 1328.23 1888.36 1328.23C1873.36 1328.23 1878.36 1296.23 1901.36 1238.23C1919.36 1192.23 1923.36 1163.23 1923.36 1068.23C1923.36 967.231 1920.36 946.231 1898.36 893.231C1873.36 834.231 1839.36 778.231 1798.36 727.231C1766.36 686.231 1793.36 628.231 1845.36 628.231C1858.36 628.231 1869.36 625.231 1869.36 621.231C1869.36 616.231 1833.36 570.231 1789.36 518.231C1677.36 385.231 1663.36 316.231 1733.36 225.231C1779.36 164.231 1831.36 138.231 1905.36 138.231C2011.36 138.231 2091.36 198.231 2130.36 310.231L2149.36 363.231L2144.36 309.231C2136.36 239.231 2100.36 169.231 2048.36 125.231C2006.36 89.2315 1935.36 58.2315 1893.36 58.2315C1880.36 58.2315 1867.36 54.2315 1864.36 48.2315C1856.36 34.2315 1816.36 35.2315 1801.36 50.2315C1784.36 67.2315 1713.36 92.2315 1666.36 97.2315C1662.36 98.2315 1655.36 106.231 1651.36 116.231C1637.36 152.231 1584.36 218.231 1569.36 218.231C1541.36 218.231 1527.36 240.231 1543.36 257.231C1555.36 270.231 1556.36 283.231 1547.36 323.231C1541.36 351.231 1530.36 381.231 1522.36 390.231C1509.36 404.231 1510.36 409.231 1527.36 426.231C1546.36 445.231 1579.36 528.231 1579.36 556.231C1579.36 564.231 1590.36 579.231 1603.36 589.231C1634.36 613.231 1715.36 776.231 1734.36 853.231C1756.36 940.231 1753.36 1069.23 1728.36 1164.23C1716.36 1207.23 1703.36 1286.23 1700.36 1338.23C1695.36 1413.23 1691.36 1433.23 1679.36 1433.23C1671.36 1433.23 1657.36 1420.23 1649.36 1403.23C1637.36 1379.23 1635.36 1338.23 1637.36 1187.23C1640.36 1039.23 1637.36 989.231 1624.36 938.231C1601.36 850.231 1558.36 769.231 1493.36 692.231C1462.36 656.231 1440.36 621.231 1443.36 613.231C1448.36 598.231 1416.36 583.231 1399.36 593.231C1387.36 600.231 1292.36 553.231 1287.36 537.231C1285.36 530.231 1260.36 524.231 1230.36 522.231C1200.36 521.231 1157.36 514.231 1133.36 508.231C1100.36 498.231 1079.36 498.231 1041.36 507.231C1014.36 514.231 977.356 520.231 958.356 520.231C927.356 521.231 839.356 562.231 839.356 576.231C839.356 579.231 842.356 579.231 845.356 575.231C848.356 572.231 863.356 574.231 877.356 579.231C894.356 586.231 926.356 585.231 973.356 577.231C1223.36 535.231 1469.36 717.231 1511.36 974.231C1524.36 1051.23 1508.36 1223.23 1486.36 1245.23C1470.36 1261.23 1429.36 1250.23 1429.36 1229.23C1429.36 1220.23 1434.36 1170.23 1441.36 1117.23C1460.36 963.231 1426.36 853.231 1331.36 755.231C1248.36 670.231 1149.36 628.231 1033.36 628.231C957.356 628.231 924.356 639.231 916.356 668.231C911.356 689.231 913.356 690.231 952.356 685.231C1045.36 672.231 1164.36 715.231 1230.36 785.231C1312.36 871.231 1335.36 969.231 1301.36 1084.23C1265.36 1210.23 1264.36 1203.23 1310.36 1240.23C1385.36 1300.23 1452.36 1423.23 1420.36 1442.23C1415.36 1446.23 1371.36 1409.23 1322.36 1361.23C1274.36 1312.23 1208.36 1258.23 1176.36 1239.23C1026.36 1151.23 827.356 1117.23 663.356 1152.23C560.356 1175.23 418.356 1245.23 346.356 1309.23C300.356 1350.23 284.356 1359.23 265.356 1354.23C238.356 1347.23 227.356 1364.23 242.356 1388.23C254.356 1409.23 193.356 1508.23 168.356 1508.23C144.356 1508.23 126.356 1541.23 141.356 1556.23C159.356 1574.23 133.356 1671.23 103.356 1697.23C79.3561 1718.23 78.3561 1721.23 93.3561 1737.23C104.356 1749.23 109.356 1774.23 109.356 1815.23C109.356 1963.23 169.356 2136.23 258.356 2244.23C281.356 2272.23 354.356 2342.23 420.356 2399.23C551.356 2513.23 548.356 2506.23 540.356 2635.23C533.356 2767.23 418.356 2869.23 275.356 2871.23C233.356 2871.23 222.356 2874.23 239.356 2879.23C310.356 2899.23 409.356 2878.23 478.356 2828.23C525.356 2794.23 575.356 2722.23 589.356 2668.23C594.356 2649.23 607.356 2451.23 618.356 2228.23C630.356 2005.23 643.356 1807.23 649.356 1788.23C665.356 1731.23 714.356 1663.23 762.356 1629.23C846.356 1571.23 944.356 1560.23 1041.36 1597.23C1085.36 1614.23 1151.36 1680.23 1175.36 1733.23C1217.36 1822.23 1211.36 1856.23 1090.36 2200.23C1027.36 2380.23 981.356 2685.23 992.356 2842.23C1004.36 3010.23 1080.36 3151.23 1210.36 3250.23C1344.36 3351.23 1501.36 3387.23 1664.36 3353.23ZM2793.36 2040.23C2881.36 1940.23 2905.36 1857.23 2875.36 1754.23C2833.36 1609.23 2664.36 1528.23 2491.36 1569.23C2443.36 1581.23 2259.36 1662.23 2259.36 1672.23C2259.36 1675.23 2279.36 1668.23 2303.36 1657.23L2346.36 1635.23L2410.36 1669.23C2560.36 1749.23 2669.36 1926.23 2694.36 2132.23L2701.36 2190.23L2724.36 2141.23C2736.36 2114.23 2767.36 2068.23 2793.36 2040.23ZM2019.36 1213.23C2040.36 1188.23 2025.36 992.231 1994.36 885.231C1968.36 795.231 1900.36 649.231 1899.36 681.231C1899.36 691.231 1912.36 724.231 1928.36 756.231C1983.36 867.231 1994.36 914.231 1993.36 1038.23C1993.36 1132.23 1989.36 1163.23 1971.36 1208.23C1959.36 1238.23 1949.36 1264.23 1949.36 1266.23C1949.36 1272.23 2006.36 1229.23 2019.36 1213.23ZM2393.36 1082.23C2495.36 1034.23 2529.36 994.231 2529.36 926.231C2529.36 698.231 2199.36 688.231 2172.36 915.231C2165.36 981.231 2182.36 1031.23 2232.36 1085.23C2279.36 1136.23 2279.36 1136.23 2393.36 1082.23ZM588.356 1034.23C599.356 1017.23 620.356 972.231 634.356 935.231C665.356 858.231 737.356 771.231 800.356 736.231L838.356 715.231L813.356 691.231C792.356 672.231 788.356 660.231 791.356 633.231C793.356 614.231 791.356 598.231 786.356 598.231C769.356 598.231 739.356 619.231 739.356 631.231C739.356 638.231 717.356 666.231 689.356 693.231C662.356 720.231 639.356 748.231 639.356 754.231C639.356 761.231 630.356 787.231 619.356 813.231C608.356 839.231 594.356 892.231 588.356 931.231C581.356 977.231 566.356 1020.23 548.356 1050.23C520.356 1098.23 520.356 1098.23 544.356 1082.23C558.356 1073.23 577.356 1052.23 588.356 1034.23ZM1149.36 1063.23C1190.36 1042.23 1209.36 1010.23 1208.36 963.231L1207.36 923.231L1199.36 958.231C1191.36 992.231 1149.36 1038.23 1126.36 1038.23C1119.36 1038.23 1088.36 1029.23 1056.36 1018.23C960.356 984.231 814.356 997.231 752.356 1046.23C730.356 1062.23 734.356 1063.23 867.356 1063.23C942.356 1063.23 1022.36 1066.23 1044.36 1069.23C1108.36 1079.23 1118.36 1079.23 1149.36 1063.23Z" sodipodi:nodetypes="cccccccccccccccccccccccccccccccccccccccccccccccccccccccccccccccccccccccccccccccccccccccccccccccccccccccccccccccccccccccccccccccccccccccccccccccccccccccccccccccccccccccccccccccccccccccccccccccccccccccccccccccccccccccccccccccccccccccccccccccccccccccccccccccccccccccccccccccccccccccccccccccccccccccccccccccccccccccccccccccccccccccccccccccccccccccccccccccccccccccccccccccccccc"/>
  <path id="shape1" transform="translate(2746.918255357, 3385.84590114411)" d="M44.0817 551.154C14.0817 452.154 1.08174 368.154 0.0817446 264.154C-1.91826 105.154 33.0817 -21.8459 72.0817 3.1541C84.0817 11.1541 84.0817 21.1541 72.0817 76.1541C50.0817 177.154 56.0817 330.154 89.0817 449.154C125.082 585.154 126.082 608.154 91.0817 612.154C66.0817 615.154 63.0817 611.154 44.0817 551.154Z" sodipodi:nodetypes="ccccccc"/>
  <path id="shape2" transform="translate(3664.01507172751, 3359.99841959166)" d="M27.9849 618.002C21.9849 609.002 21.9849 582.002 27.9849 535.002C40.9849 444.002 31.9849 208.002 10.9849 102.002C1.98493 57.0016 -2.01507 15.0016 0.984928 10.0016C10.9849 -6.99842 64.9849 -0.99842 74.9849 18.0016C89.9849 46.0016 105.985 207.002 105.985 330.002C105.985 458.002 92.9849 558.002 69.9849 601.002C53.9849 633.002 43.9849 637.002 27.9849 618.002Z" sodipodi:nodetypes="cccccccc"/>
  <path id="shape3" transform="translate(2843.76110120932, 3090)" d="M239.239 294C236.239 286 238.239 268 244.239 255C257.239 226 271.239 130 262.239 130C259.239 130 205.239 150 144.239 175C22.2389 224 8.2389 227 0.238899 206C-6.7611 189 142.239 0 162.239 0C169.239 0 209.239 15 250.239 34C324.239 68 325.239 69 331.239 112C335.239 137 333.239 176 326.239 201C303.239 285 256.239 337 239.239 294Z" sodipodi:nodetypes="cccccccccc"/>
  <path id="shape4" transform="translate(3343.94065133195, 3095.60801029622)" d="M38.0593 272.392C10.0593 227.392 -5.94065 153.392 2.05935 103.392C9.05935 64.392 12.0593 60.392 74.0593 33.392C184.059 -16.608 174.059 -19.608 261.059 88.392C335.059 180.392 349.059 214.392 312.059 214.392C305.059 214.392 249.059 194.392 190.059 169.392C130.059 145.392 78.0593 128.392 73.0593 133.392C68.0593 138.392 70.0593 166.392 76.0593 195.392C93.0593 277.392 93.0593 298.392 75.0593 302.392C65.0593 304.392 50.0593 292.392 38.0593 272.392Z" sodipodi:nodetypes="cccccccccc"/>
  <path id="shape5" transform="translate(1992.81998360686, 2140.5)" d="M138.18 986.5C18.18 832.5 -20.82 698.5 10.18 548.5C56.18 321.5 219.18 171.5 448.18 144.5C497.18 138.5 507.18 135.5 490.18 128.5C446.18 112.5 434.18 52.5 467.18 19.5C493.18 -6.5 539.18 -6.5 562.18 19.5C574.18 32.5 593.18 39.5 616.18 39.5C703.18 39.5 814.18 82.5 905.18 152.5C960.18 194.5 969.18 221.5 936.18 242.5C924.18 250.5 907.18 241.5 861.18 204.5C792.18 148.5 723.18 115.5 641.18 100.5C594.18 91.5 580.18 91.5 572.18 102.5C567.18 109.5 553.18 121.5 542.18 127.5C524.18 137.5 526.18 138.5 560.18 139.5C656.18 139.5 808.18 194.5 815.18 231.5C820.18 255.5 796.18 258.5 736.18 243.5C671.18 225.5 474.18 223.5 433.18 238.5C406.18 249.5 405.18 251.5 421.18 268.5C430.18 277.5 437.18 289.5 437.18 294.5C437.18 298.5 415.18 325.5 388.18 354.5C328.18 417.5 292.18 486.5 278.18 563.5C269.18 612.5 270.18 624.5 282.18 633.5C292.18 641.5 298.18 674.5 302.18 743.5C308.18 851.5 296.18 889.5 257.18 889.5C238.18 889.5 237.18 895.5 239.18 977.5C242.18 1057.5 241.18 1064.5 222.18 1066.5C207.18 1068.5 185.18 1046.5 138.18 986.5ZM204.18 804.5C192.18 553.5 199.18 491.5 246.18 394.5C281.18 323.5 364.18 233.5 415.18 212.5C452.18 197.5 632.18 191.5 697.18 203.5C732.18 209.5 732.18 209.5 692.18 193.5C636.18 171.5 505.18 164.5 420.18 178.5C116.18 230.5 -53.82 548.5 73.18 828.5C94.18 875.5 206.18 1034.5 212.18 1027.5C213.18 1025.5 210.18 925.5 204.18 804.5Z" sodipodi:nodetypes="cccccccccccccccccccccccccccccccccccc"/>
  <path id="shape6" transform="translate(2859.22469397427, 2431.05854956645)" d="M129.775 386.941C129.775 384.941 127.775 345.941 126.775 298.941C124.775 196.941 99.7753 130.941 39.7753 72.9415C-31.2247 3.94145 -1.22469 -27.0585 82.7753 28.9415C165.775 83.9415 208.775 175.941 196.775 274.941C187.775 349.941 171.775 388.941 149.775 388.941C139.775 388.941 130.775 387.941 129.775 386.941Z" sodipodi:nodetypes="ccccccc"/>
  <path id="shape7" transform="translate(2330, 3392.90881071014)" d="M0 641.091C0 638.091 9 623.091 19 608.091C89 510.091 105 354.091 57 236.091C32 175.091 30 162.091 36 83.0912C41 29.0912 47 -1.90881 54 0.0911893C73 6.09119 137 138.091 149 195.091C180 348.091 146 489.091 53 605.091C22 642.091 0 658.091 0 641.091Z" sodipodi:nodetypes="cccccccc"/>
 </g>
</svg>
